<svg width="50" height="50" viewBox="0 0 50 50" fill="none" xmlns="http://www.w3.org/2000/svg">
<path fill-rule="evenodd" clip-rule="evenodd" d="M24.9998 29.4208L36.0477 40.4687C36.634 41.055 37.4291 41.3843 38.2582 41.3843C39.0872 41.3843 39.8823 41.055 40.4686 40.4687C41.0548 39.8825 41.3842 39.0874 41.3842 38.2583C41.3842 37.4293 41.0548 36.6342 40.4686 36.0479L29.4165 25L40.4665 13.9521C40.7566 13.6618 40.9868 13.3172 41.1437 12.938C41.3007 12.5588 41.3814 12.1524 41.3813 11.742C41.3812 11.3316 41.3003 10.9252 41.1432 10.546C40.986 10.1669 40.7557 9.82243 40.4655 9.53229C40.1752 9.24215 39.8306 9.01203 39.4514 8.85506C39.0722 8.69809 38.6658 8.61735 38.2553 8.61744C37.8449 8.61754 37.4385 8.69847 37.0594 8.85562C36.6803 9.01277 36.3358 9.24306 36.0457 9.53333L24.9998 20.5812L13.9519 9.53333C13.6638 9.23473 13.3191 8.9965 12.9379 8.83255C12.5567 8.66859 12.1467 8.58219 11.7317 8.57839C11.3168 8.57459 10.9053 8.65347 10.5212 8.81041C10.137 8.96736 9.78801 9.19924 9.49446 9.49251C9.20091 9.78579 8.9687 10.1346 8.81139 10.5186C8.65408 10.9025 8.57482 11.314 8.57823 11.7289C8.58164 12.1439 8.66765 12.554 8.83125 12.9353C8.99484 13.3166 9.23275 13.6616 9.53108 13.95L20.5832 25L9.53316 36.05C9.23483 36.3384 8.99693 36.6834 8.83333 37.0647C8.66973 37.446 8.58372 37.8561 8.58031 38.2711C8.5769 38.686 8.65617 39.0975 8.81348 39.4814C8.97078 39.8654 9.20299 40.2142 9.49654 40.5075C9.79009 40.8008 10.1391 41.0326 10.5232 41.1896C10.9074 41.3465 11.3189 41.4254 11.7338 41.4216C12.1488 41.4178 12.5588 41.3314 12.94 41.1675C13.3211 41.0035 13.6659 40.7653 13.954 40.4667L24.9998 29.4208Z" fill="#4A6B55"/>
</svg>
